PathFileType	4	(X/Y/Z)	D:\TRACE\spotREDO_2-26-24\spot_justArm_Motion_2_1-platform.trc
DataRate	CameraRate	NumFrames	NumMarkers	Units	OrigDataRate	OrigDataStartFrame	OrigNumFrames
100.00	100.00	      38	5	mm	100.00	1	      7000
Frame#	Time	Left_Front			Right_Front			Left_Aft			Right_Aft			Post			
		X1	Y1	Z1	X2	Y2	Z2	X3	Y3	Z3	X4	Y4	Z4	X5	Y5	Z5	

1	0.000	-697.00891	-3.82615	-575.60883	717.83496	5.12940	-491.27606	-768.16589	4.77297	643.52252	801.18524	11.37718	647.82123	12.34530	623.21527	-982.60327	
2	0.010	-697.00500	-3.85586	-575.61102	717.86462	5.11609	-491.30533	-768.17328	4.83260	643.52795	801.21521	11.42204	647.80267	12.42830	623.22412	-982.59222	
3	0.020	-696.96045	-3.85834	-575.60266	717.83331	5.14112	-491.30994	-768.14020	4.91225	643.50916	801.30017	11.47540	647.83136	12.57968	623.20508	-982.57172	
4	0.030	-696.97522	-3.87349	-575.59302	717.81470	5.16611	-491.27777	-768.17487	4.96942	643.46570	801.29803	11.45833	647.80640	12.49645	623.20398	-982.53333	
5	0.040	-697.01959	-3.87516	-575.61267	717.86438	5.14451	-491.29376	-768.17596	5.07588	643.44202	801.26227	11.38968	647.76776	12.43309	623.19562	-982.54297	
6	0.050	-696.98773	-3.87298	-575.59924	717.88739	5.06079	-491.27399	-768.31665	5.00944	643.31854	801.25067	11.37858	647.78754	12.39850	623.19159	-982.57367	
7	0.060	-696.96954	-3.89998	-575.59576	717.92371	5.08965	-491.25269	-768.39319	5.15213	643.31805	801.34424	11.14842	647.50549	12.48010	623.25311	-982.56757	
8	0.070	-696.96722	-3.90768	-575.59821	717.89362	5.06800	-491.27408	-768.26190	5.08013	643.51373	801.28601	11.13960	647.54755	12.47826	623.23639	-982.46680	
9	0.080	-696.97736	-3.87505	-575.59357	717.80469	5.15276	-491.24796	-768.37061	5.50083	643.58252	801.18298	11.06138	647.51147	12.53429	623.25037	-982.40344	
10	0.090	-697.01801	-3.84249	-575.59894	717.86115	5.14843	-491.28732	-768.13391	5.12722	643.63617	801.14044	11.05204	647.51111	12.43976	623.25903	-982.31934	
11	0.100	-697.00214	-3.83649	-575.61823	717.86780	5.15121	-491.25967	-768.13080	5.09601	643.59204	801.28174	11.03103	647.44702	12.40291	623.25012	-982.30933	
12	0.110	-696.98438	-3.86422	-575.60687	717.88904	5.07074	-491.32370	-768.12946	5.08383	643.61627	801.28107	11.12676	647.48737	12.40820	623.22394	-982.27356	
13	0.120	-696.96979	-3.90754	-575.60291	717.93298	5.10156	-491.24823	-768.20325	4.88727	643.44971	801.32568	11.40581	647.83783	12.44011	623.19543	-982.30804	
14	0.130	-696.98230	-3.88249	-575.60565	717.91003	5.08952	-491.24466	-768.19513	4.93818	643.46460	801.32489	11.43642	647.81482	12.50861	623.20441	-982.39880	
15	0.140	-697.01099	-3.83571	-575.61798	717.86102	5.12394	-491.28790	-768.20660	4.98556	643.53278	801.29736	11.40448	647.80682	12.47411	623.20428	-982.46436	
16	0.150	-696.97540	-3.85311	-575.61548	717.86517	5.11665	-491.28891	-768.13800	5.09074	643.61200	801.17688	11.32908	647.78033	12.42918	623.20819	-982.58716	
17	0.160	-697.01831	-3.86039	-575.61798	717.86279	5.05376	-491.27325	-768.21338	4.85322	643.46771	801.20215	11.06139	647.43884	12.35819	623.24359	-982.66852	
18	0.170	-697.01318	-3.84716	-575.61029	717.84778	5.14740	-491.31927	-768.19684	4.82680	643.47455	801.19824	11.01949	647.46729	12.36529	623.23706	-982.69763	
19	0.180	-697.01624	-3.83724	-575.61273	717.88379	5.12204	-491.26334	-768.22540	4.87439	643.51093	801.24823	10.99107	647.45422	11.55744	623.31415	-982.66626	
20	0.190	-696.96698	-3.87846	-575.59406	717.88239	5.12827	-491.25500	-768.09534	5.10905	643.61761	801.21429	11.01188	647.44635	11.99944	623.33893	-982.60504	
21	0.200	-696.97693	-3.90137	-575.60938	717.87518	5.09790	-491.22424	-768.09320	5.10978	643.65930	801.27704	11.01809	647.48175	12.38396	623.25403	-982.47833	
22	0.210	-696.98608	-3.89183	-575.57599	717.89386	5.06452	-491.28629	-768.12378	5.08718	643.61462	801.29022	11.09078	647.50928	12.05207	623.21924	-982.39294	
23	0.220	-696.82648	-4.01422	-575.61761	717.84418	5.02387	-491.26550	-768.19415	4.85409	643.46887	801.19086	11.31237	647.78601	11.66601	623.22565	-982.33295	
24	0.230	-696.85266	-3.98017	-575.68134	717.82776	5.07341	-491.29181	-768.18933	4.82898	643.44849	801.25708	11.00344	647.46021	11.63550	623.33691	-982.23950	
25	0.240	-696.88458	-3.90184	-575.66956	717.83374	5.03332	-491.24194	-768.16284	5.12368	643.63995	801.16058	11.26269	647.78845	12.38179	623.20038	-982.28577	
26	0.250	-696.86310	-3.90047	-575.69348	717.88098	5.07791	-491.30942	-768.10535	5.09741	643.59766	801.29468	11.32468	647.78992	12.45734	623.22162	-982.32239	
27	0.260	-696.90057	-3.88797	-575.67609	717.87622	5.13015	-491.25845	-768.15112	5.06923	643.61377	801.29523	10.93898	647.43646	12.38165	623.22076	-982.40033	
28	0.270	-696.86969	-3.92062	-575.68170	717.87909	5.09730	-491.28275	-768.21973	4.87644	643.50690	801.29803	10.97085	647.43274	12.39322	623.24255	-982.51233	
29	0.280	-696.86829	-3.93007	-575.67279	717.88885	5.05264	-491.23862	-768.21539	4.83042	643.49365	801.32935	10.99783	647.41364	12.46752	623.20520	-982.58752	
30	0.290	-696.92334	-3.89215	-575.65918	717.86682	5.05872	-491.28479	-768.23859	4.84358	643.47101	801.31879	10.98871	647.49402	12.40074	623.22443	-982.66412	
31	0.300	-696.90741	-3.84768	-575.67865	717.85614	5.09176	-491.22794	-768.23499	4.90347	643.47150	801.20575	10.97996	647.43884	12.43148	623.24072	-982.67297	
32	0.310	-696.93146	-3.85846	-575.66772	717.85150	5.08395	-491.24268	-768.21564	4.92163	643.49341	801.23682	11.00380	647.41296	12.50873	623.21051	-982.57947	
33	0.320	-696.88159	-3.92436	-575.70142	717.87268	5.14415	-491.27838	-768.12628	5.09304	643.60065	801.22009	11.31277	647.79193	12.45800	623.20642	-982.57709	
34	0.330	-696.90979	-3.88151	-575.65259	717.86963	5.07344	-491.23877	-768.15057	5.11449	643.61041	801.22626	11.04251	647.44965	12.48493	623.17426	-982.49207	
35	0.340	-696.90942	-3.88371	-575.67059	717.86987	5.03371	-491.24393	-768.18805	4.82013	643.45300	801.33453	11.04741	647.49005	12.55886	623.22137	-982.46259	
36	0.350	-696.92145	-3.89334	-575.69269	717.86719	5.09834	-491.28699	-768.22882	4.80148	643.46588	801.36444	11.06743	647.45874	12.47332	623.22876	-982.46008	
37	0.360	-696.89191	-3.91034	-575.67255	717.89532	5.09398	-491.30219	-768.19116	4.89220	643.48022	801.30408	10.94909	647.43842	12.39141	623.22803	-982.39771	
38	0.370	-696.87476	-3.90618	-575.66449	717.86914	5.09164	-491.26572	-768.11292	5.10077	643.61481	801.31653	10.94607	647.41711	12.43130	623.23785	-982.44379	
